<svg fill="none" height="24" viewBox="0 0 24 24" width="24" xmlns="http://www.w3.org/2000/svg"><path clip-rule="evenodd" d="m7 4c-2.69153 0-5 1.44279-5 3.5v8.9615c0 2.0806 2.34973 3.5385 5.09091 3.5385h13.90909c.5523 0 1-.4477 1-1v-8.4615c0-.55232-.4477-1.00004-1-1.00004h-9.8993c.564-.55968.8993-1.25445.8993-2.03846 0-2.05721-2.30847-3.5-5-3.5zm-2.99544 3.57354c.08428.6849 1.32857 1.42646 2.99544 1.42646 1.72674 0 3-.79578 3-1.5s-1.27326-1.5-3-1.5-3 .79578-3 1.5zm11.99544 9.42646c0-.5523.4477-1 1-1s1 .4477 1 1v1h-2zm-4 0c0-.5523.4477-1 1-1s1 .4477 1 1v1h-2zm-3-1c-.55229 0-1 .4477-1 1v1h2v-1c0-.5523-.44771-1-1-1z" fill="#000" fill-rule="evenodd"/></svg>